<?xml version="1.0"?>
<svg version="1.1" xmlns="http://www.w3.org/2000/svg" 
width="200px" height="50px" style=""><path fill="#ff0000" 
d="M1.05,43l0-2.55l2.25-0.9l0-14.1l-2.25-0.9l0-2.55l9.3-0.15l0,2.7l-2.4,0.9l0,4.8l7.86,0l0-4.8l-2.4-0.9l0-2.55l9.3-0.15l0,2.7l-2.25,0.9l0,14.1l2.25,0.9l0,2.55l-9.3,0l0-2.55l2.4-0.9l0-5.7l-7.86,0l0,5.7l2.4,0.9l0,2.55l-9.3,0z M33.7653,25.45l0,9.45c0,3.45,0.99,4.8,3.93,4.8c3.18,0,3.87-1.71,3.87-5.25l0-9l-2.34-0.9l0-2.55l9.24-0.15l0,2.7l-2.25,0.9l0,9c0,5.79-2.22,8.91-8.67,8.91c-6.03,0-8.43-2.67-8.43-8.46l0-9.45l-2.22-0.9l0-2.55l9.21-0.15l0,2.7z M56.5206,36.49l0.45,2.52s1.2,0.63,2.94,0.63c1.92,0,3.63-0.84,3.63-2.43c0-3.51-10.14-1.95-10.14-9.36c0-4.14,3.27-6.36,7.62-6.36c3.39,0,6.6,1.2,6.6,1.2l-0.15,5.46l-2.76,0l-0.75-2.55s-1.35-0.45-2.64-0.45c-2.13,0-3.18,0.93-3.18,2.13c0,3.48,10.11,2.1,10.11,9.15c0,4.5-3.48,6.96-8.1,6.96c-3.39,0-6.69-1.14-6.69-1.14l0-5.76l3.06,0z M78.4959,39.55l0-14.1l-2.85,0l-0.75,2.85l-2.76,0l0-6.45l17.4,0l0,6.45l-2.79,0l-0.75-2.85l-2.85,0l0,14.1l2.85,0.9l0,2.55l-10.35,0l0-2.55z"/>
<path fill="#" d="M106.9,38.8l0.6-3.45l2.1,0l0,5.85l-14.55,0l0-1.8l2.55-0.6l0-16.2l-2.55-0.6l0-1.65l8.25-0.15l0,1.8l-2.55,0.6l0,16.2l6.15,0z M126.658,33.7l-10.35,0c0,3.3,1.77,5.4,4.35,5.4c3,0,5.04-1.65,5.04-1.65l1.05,1.56s-2.79,2.49-6.39,2.49c-4.8,0-7.2-3.15-7.2-8.1c0-4.8,3-8.4,7.35-8.4s6.3,2.55,6.3,7.05c0,0.75-0.15,1.59-0.15,1.65z M116.428,31.45l7.2,0c0-2.25-0.87-4.11-3.27-4.11s-3.75,1.86-3.93,4.11z M132.616,29.95l-0.15-3.75s3.3-1.2,5.85-1.2c3.48,0,5.55,1.2,5.55,4.65l0,9.15l2.4,0.6l0,1.65l-4.65,0.15l-0.63-2.1c-1.02,1.02-2.82,2.4-4.92,2.4c-2.85,0-4.5-1.65-4.5-4.5c0-3.45,2.7-4.65,6.9-4.65l2.4,0l0-2.4c0-1.8-1.05-2.7-2.85-2.7s-3.03,0.45-3.03,0.45l-0.42,2.25l-1.95,0z M140.866,34.3l-2.1,0c-3,0-4.14,0.75-4.14,2.55c0,1.35,0.84,2.25,2.19,2.25c2.25,0,4.05-2.4,4.05-2.4l0-2.4z M155.374,25.3l0.27,2.19c0.75-0.84,2.49-2.49,4.53-2.49c1.5,0,2.7,0.45,2.7,0.45l-0.15,4.35l-1.95,0l-0.45-2.25c-2.25,0-3.69,1.47-4.35,2.34l0,8.91l3,0.75l0,1.65l-8.55,0l0-1.65l2.55-0.75l0-11.1l-2.55-0.6l0-1.65z M171.382,25.3l0.27,2.13c0.72-0.63,3.09-2.43,5.58-2.43c3.3,0,4.8,2.1,4.8,5.4l0,8.4l2.25,0.75l0,1.65l-7.2,0l0-1.65l1.95-0.75l0-8.1c0-2.1-0.75-3.15-2.7-3.15c-2.55,0-4.35,2.4-4.35,2.4l0,8.85l1.95,0.75l0,1.65l-7.5,0l0-1.65l2.55-0.75l0-11.1l-2.55-0.6l0-1.65z"/>
</svg>
