<svg width="290" height="290" viewBox="0 0 290 290" fill="none" xmlns="http://www.w3.org/2000/svg">
<circle cx="145" cy="145" r="145" fill="white"/>
<path d="M144.713 10C79.8001 10 25.8791 167.427 15.209 200.695C14.1979 203.847 16.9852 206.823 20.7752 206.823H43.4259C46.1445 206.823 48.491 205.233 49.1135 202.95C55.9757 177.772 96.1633 38.3559 144.713 38.3559C193.263 38.3559 233.45 177.772 240.313 202.95C240.935 205.233 243.281 206.823 246.001 206.823H268.652C272.442 206.823 275.229 203.847 274.218 200.695C263.547 167.427 209.626 10 144.713 10Z" fill="#AA1D2B"/>
<path d="M167.083 250.881H173.098C171.218 255.431 168.327 258.985 164.432 261.564C159.97 264.521 154.523 266 148.104 266C141.896 266 136.528 264.75 132.007 262.252C127.496 259.753 124.132 256.073 121.925 251.202C119.727 246.33 118.628 241.034 118.628 235.303C118.628 229.01 119.881 223.152 122.377 217.719C123.674 214.913 125.219 212.466 127.01 210.382L133.56 211.994C130.468 214.412 128.098 217.659 126.464 221.754C124.662 226.235 123.765 230.912 123.765 235.773C123.765 240.495 124.768 244.794 126.773 248.668C128.778 252.543 131.592 255.363 135.217 257.151C138.841 258.927 142.986 259.822 147.651 259.822C152.152 259.822 156.027 259.077 159.266 257.586C162.495 256.096 165.107 253.861 167.083 250.881L167.083 250.881ZM166.224 210.038C167.156 211.258 167.976 212.599 168.683 214.062C170.63 218.097 171.604 222.522 171.604 227.313C171.604 233.021 170.119 238.18 167.17 242.788C163.459 248.611 158.707 251.523 152.904 251.523C151.343 251.523 150.167 251.202 149.376 250.548C148.586 249.895 148.056 248.944 147.795 247.694C145.579 250.25 143.015 251.523 140.113 251.523C136.99 251.523 134.397 250.239 132.334 247.682C130.272 245.115 129.24 241.71 129.24 237.446C129.24 232.185 130.484 227.393 132.971 223.049C135.988 217.765 139.843 215.117 144.547 215.117C147.901 215.117 150.379 216.641 151.979 219.69L152.682 215.953H160.133L155.873 240.037C155.613 241.561 155.478 242.547 155.478 242.994C155.478 243.556 155.584 243.969 155.805 244.255C156.017 244.53 156.278 244.668 156.577 244.668C157.483 244.668 158.649 244.026 160.085 242.719C162.003 241.023 163.555 238.742 164.741 235.876C165.926 233.01 166.514 230.041 166.514 226.969C166.514 221.467 164.847 216.859 161.492 213.156C161.036 212.653 160.554 212.182 160.049 211.748L166.224 210.038L166.224 210.038ZM136.556 237.079C136.556 239.922 137.038 242.02 138.012 243.361C138.985 244.702 140.181 245.378 141.607 245.378C142.687 245.378 143.689 245.069 144.634 244.439C145.347 243.991 146.051 243.281 146.754 242.318C147.747 240.954 148.615 238.959 149.338 236.346C150.061 233.721 150.427 231.279 150.427 229.021C150.427 226.488 149.926 224.551 148.943 223.198C147.95 221.845 146.706 221.169 145.203 221.169C143.583 221.169 142.08 221.914 140.711 223.393C139.332 224.883 138.301 227.004 137.597 229.766C136.903 232.517 136.556 234.959 136.556 237.079Z" fill="#AA1D2B"/>
<path d="M182.464 164.944V201.728L146.395 211.363L107.537 201.796V164.944L143.709 177.234H146.291L182.464 164.944Z" fill="#AA1D2B"/>
<path d="M88.2241 149.602V187.648H81.98V149.602H88.2241Z" fill="#AA1D2B"/>
<path d="M85.1024 183.706C87.3051 183.706 89.2727 184.89 90.6728 186.804C91.9707 188.578 92.7736 190.996 92.7736 193.638C92.7736 196.279 91.9707 198.697 90.6728 200.471C89.2728 202.385 87.3051 203.569 85.1024 203.569C82.8994 203.569 80.932 202.385 79.5319 200.471C78.2341 198.697 77.4312 196.279 77.4312 193.638C77.4312 190.996 78.2341 188.578 79.5319 186.804C80.9319 184.89 82.8995 183.706 85.1024 183.706Z" fill="#AA1D2B"/>
<path d="M145.854 116L182.927 128.597L220 141.193V148.328L182.927 160.925L145.854 173.522H144.146L107.073 160.925L70 148.328V141.193L107.073 128.597L144.146 116H145.854Z" fill="#AA1D2B"/>
</svg>
